<?xml version="1.0" standalone="no"?>
<!DOCTYPE svg PUBLIC "-//W3C//DTD SVG 20010904//EN"
 "http://www.w3.org/TR/2001/REC-SVG-20010904/DTD/svg10.dtd">
<svg version="1.0" xmlns="http://www.w3.org/2000/svg"
 width="300.000000pt" height="300.000000pt" viewBox="0 0 300.000000 300.000000"
 preserveAspectRatio="xMidYMid meet">
<metadata>
Created by potrace 1.10, written by Peter Selinger 2001-2011
</metadata>
<g transform="translate(0.000000,300.000000) scale(0.100000,-0.100000)"
fill="#C2056A" stroke="none">
<path d="M1395 2639 c-91 -45 -137 -122 -139 -230 l-1 -69 -102 0 c-79 0 -105
-3 -117 -16 -9 -8 -16 -18 -16 -22 0 -7 -36 -309 -50 -412 -5 -41 -12 -97 -15
-125 -3 -27 -10 -82 -16 -122 -17 -121 -16 -195 4 -225 39 -58 41 -58 560 -58
l474 0 33 23 c19 12 42 37 53 54 18 31 18 37 2 170 -9 76 -18 152 -20 168 -3
17 -9 68 -15 115 -6 47 -13 101 -15 120 -3 19 -12 93 -20 165 -11 87 -21 136
-32 147 -13 15 -33 18 -115 18 l-98 0 -1 43 c-2 119 -43 196 -133 248 -64 36
-157 40 -221 8z m209 -69 c49 -35 77 -90 84 -166 l5 -64 -193 0 -192 0 6 67
c12 129 83 198 198 190 39 -2 67 -11 92 -27z m136 -245 c9 -11 34 -15 94 -15
73 0 85 -3 102 -22 11 -13 20 -36 22 -53 1 -16 22 -187 46 -379 47 -375 47
-393 0 -437 l-26 -24 -464 -2 c-308 -1 -474 2 -494 9 -53 18 -64 46 -57 151 4
51 9 101 11 112 2 11 7 52 11 90 4 39 9 81 11 95 2 14 7 59 10 100 3 41 8 78
11 83 2 4 6 29 8 55 2 26 7 71 10 99 4 29 5 54 3 55 -1 2 7 18 20 36 23 31 25
32 102 32 44 0 91 5 105 12 19 9 28 9 37 0 8 -8 69 -12 199 -12 154 0 189 3
199 15 7 8 16 15 20 15 4 0 13 -7 20 -15z"/>
<path d="M1652 2217 c-5 -7 -22 -37 -38 -67 -16 -32 -54 -78 -88 -110 -149
-137 -160 -152 -171 -244 -2 -21 -7 -41 -10 -44 -13 -14 -19 16 -19 101 0 78
4 98 23 132 28 49 70 95 134 146 58 46 43 51 -29 10 -60 -35 -109 -88 -138
-150 -29 -65 -28 -195 2 -270 25 -64 22 -77 -8 -30 -70 116 -84 236 -37 331
44 90 138 156 226 159 20 1 17 3 -12 10 -144 34 -305 -174 -267 -343 15 -69
44 -131 77 -169 31 -35 46 -33 54 7 l5 29 21 -45 c30 -66 36 -88 42 -165 5
-61 8 -70 26 -70 40 -1 72 52 81 130 9 79 25 95 98 92 70 -3 84 10 107 103 10
38 26 87 36 107 22 47 20 62 -13 113 -23 35 -28 53 -29 108 -1 92 -43 166 -73
129z m38 -61 c7 -30 10 -74 7 -97 -6 -45 1 -67 39 -112 32 -38 30 -53 -8 -66
-30 -11 -30 -12 -14 -30 15 -16 15 -21 3 -32 -8 -7 -12 -21 -9 -31 2 -10 -1
-18 -8 -18 -8 0 -9 -10 -5 -29 10 -48 -15 -63 -94 -55 -83 8 -91 0 -101 -100
-7 -71 -38 -146 -61 -146 -12 0 -12 17 1 25 18 11 11 90 -15 166 -66 191 -62
207 85 349 108 104 149 164 150 218 0 38 16 16 30 -42z"/>
<path d="M1634 1206 c-128 -57 -94 -266 43 -266 111 0 178 124 118 216 -33 51
-107 74 -161 50z m92 -39 c20 -18 28 -35 31 -73 8 -85 -30 -136 -91 -120 -58
14 -76 130 -30 185 31 37 54 39 90 8z"/>
<path d="M340 1175 c0 -38 15 -47 25 -15 3 11 15 20 26 20 10 0 22 1 25 3 3 1
6 -45 7 -102 0 -72 -3 -106 -11 -109 -7 -2 -12 -9 -12 -15 0 -8 19 -12 50 -13
34 0 50 4 50 12 0 7 -4 14 -9 16 -15 5 -16 213 -2 212 6 -1 17 -2 25 -2 8 -1
18 -11 21 -22 10 -32 25 -23 25 15 l0 35 -110 0 -110 0 0 -35z"/>
<path d="M580 1200 c0 -5 7 -10 15 -10 12 0 15 -19 15 -109 0 -88 -3 -110 -15
-115 -30 -11 -14 -21 35 -20 53 0 74 9 46 20 -12 4 -16 19 -16 55 l0 49 55 0
55 0 0 -50 c0 -27 -4 -50 -10 -50 -5 0 -10 -6 -10 -13 0 -8 15 -12 45 -12 48
1 68 11 41 21 -25 9 -24 211 2 230 15 12 9 13 -43 13 -52 0 -58 -1 -42 -13 11
-9 17 -27 17 -55 l0 -41 -55 0 -55 0 0 41 c0 28 6 46 18 55 15 12 9 13 -40 14
-32 0 -58 -4 -58 -10z"/>
<path d="M880 1200 c0 -5 5 -10 10 -10 6 0 10 -43 10 -110 0 -67 -4 -110 -10
-110 -5 0 -10 -6 -10 -12 0 -10 24 -13 91 -11 50 1 92 3 94 5 1 2 5 18 8 36 8
37 -6 42 -32 11 -10 -13 -30 -21 -51 -22 -35 -2 -35 -2 -38 46 -3 46 -3 47 27
47 22 0 31 -5 31 -16 0 -9 5 -14 12 -12 6 2 11 21 11 41 0 42 -9 58 -19 33 -4
-10 -17 -16 -35 -16 -27 0 -29 3 -29 40 0 39 1 40 35 40 24 0 37 -6 45 -20 14
-27 30 -16 30 21 l0 29 -90 0 c-53 0 -90 -4 -90 -10z"/>
<path d="M1160 1204 c0 -3 9 -13 19 -22 11 -10 35 -66 54 -127 45 -140 59
-144 98 -30 16 44 29 82 29 85 1 3 13 -33 28 -80 40 -122 54 -118 104 30 21
63 45 120 53 126 25 18 17 24 -30 24 -44 0 -60 -12 -31 -23 12 -5 10 -19 -10
-83 -13 -42 -25 -79 -28 -81 -2 -2 -16 33 -31 79 -17 53 -23 84 -16 86 28 9 6
22 -39 22 -27 0 -50 -4 -50 -10 0 -5 4 -10 10 -10 5 0 14 -9 20 -19 7 -15 5
-34 -11 -78 -12 -32 -23 -65 -26 -73 -3 -8 -16 25 -31 74 -18 64 -22 91 -14
94 30 10 7 22 -43 22 -30 0 -55 -3 -55 -6z"/>
<path d="M1850 1201 c0 -5 5 -11 12 -13 8 -3 9 -30 1 -106 -8 -81 -14 -106
-29 -117 -22 -17 -22 -17 34 -19 29 -2 42 2 42 11 0 7 -5 13 -10 13 -7 0 -10
34 -8 90 1 50 5 90 10 90 4 0 8 -8 9 -17 1 -28 63 -186 74 -190 6 -1 28 45 50
105 l40 107 7 -90 c7 -74 5 -91 -7 -98 -27 -15 -16 -22 35 -22 33 0 50 4 50
13 0 6 -7 12 -15 12 -12 0 -15 17 -16 88 -2 106 0 126 12 130 24 9 4 22 -33
22 l-43 0 -34 -91 -34 -91 -35 91 -35 91 -38 0 c-22 0 -39 -4 -39 -9z"/>
<path d="M2190 1201 c0 -5 7 -11 15 -15 12 -4 15 -26 15 -104 0 -76 -4 -102
-15 -112 -8 -7 -15 -15 -15 -19 0 -10 184 -7 192 4 11 14 10 65 -1 65 -5 0
-15 -9 -22 -20 -10 -14 -27 -21 -54 -23 l-40 -2 -3 48 c-3 46 -3 47 26 47 17
0 32 -6 36 -15 11 -29 26 -15 26 24 0 41 -14 62 -24 36 -3 -9 -18 -15 -36 -15
-28 0 -30 2 -30 38 0 21 2 41 5 43 2 3 20 3 39 1 24 -3 37 -10 41 -23 10 -31
25 -22 25 16 l0 35 -90 0 c-49 0 -90 -4 -90 -9z"/>
<path d="M2400 1200 c0 -5 7 -10 15 -10 17 0 18 -4 15 -125 -1 -70 -5 -92 -18
-102 -20 -14 -20 -14 36 -17 27 -1 42 2 42 10 0 7 -4 14 -8 16 -13 4 -24 168
-12 168 6 0 10 -3 10 -8 0 -10 118 -175 132 -183 24 -15 28 4 28 122 0 73 4
119 10 119 6 0 10 5 10 10 0 6 -18 10 -40 10 -40 0 -53 -13 -25 -24 12 -4 15
-23 15 -82 l0 -77 -66 91 c-64 89 -67 92 -105 92 -21 0 -39 -4 -39 -10z"/>
<path d="M1420 832 c-65 -20 -42 -118 26 -110 41 5 44 29 2 26 -31 -3 -33 -1
-33 27 0 28 2 30 33 27 22 -1 32 2 30 9 -5 15 -39 27 -58 21z"/>
<path d="M394 775 l1 -55 38 0 c20 0 37 5 37 10 0 6 -11 10 -25 10 -16 0 -25
6 -25 15 0 8 9 15 20 15 11 0 20 5 20 11 0 6 -9 8 -20 4 -14 -5 -20 -2 -20 9
0 10 9 16 25 16 14 0 25 5 25 10 0 6 -17 10 -38 10 l-38 0 0 -55z"/>
<path d="M591 811 c-16 -29 -13 -56 8 -75 22 -20 72 -18 79 3 3 10 -3 12 -26
6 -36 -8 -57 17 -40 48 7 14 16 17 40 12 23 -6 29 -4 26 6 -3 8 -21 15 -41 17
-27 2 -38 -1 -46 -17z"/>
<path d="M716 814 c-35 -34 -6 -94 45 -94 33 0 49 18 49 55 0 17 -5 36 -12 43
-17 17 -64 15 -82 -4z m72 -30 c4 -25 -22 -49 -43 -40 -15 5 -21 47 -8 60 14
14 48 1 51 -20z"/>
<path d="M850 775 c0 -61 20 -77 21 -17 1 36 1 37 11 10 5 -16 14 -28 19 -28
4 0 15 12 24 28 l16 27 -6 -37 c-5 -30 -3 -38 10 -38 12 0 15 12 15 55 0 64
-17 73 -42 23 l-16 -33 -12 33 c-19 53 -40 41 -40 -23z"/>
<path d="M1000 775 c0 -30 5 -55 10 -55 6 0 10 17 10 38 l1 37 15 -27 c8 -16
18 -28 22 -28 5 0 13 12 19 28 11 27 11 27 12 -10 2 -60 21 -44 21 17 0 64
-21 76 -40 23 l-12 -33 -16 33 c-25 50 -42 41 -42 -23z"/>
<path d="M1160 775 l0 -55 35 0 c19 0 35 5 35 10 0 6 -11 10 -25 10 -16 0 -25
6 -25 15 0 8 9 15 20 15 11 0 20 5 20 11 0 6 -9 9 -20 6 -13 -3 -20 0 -20 9 0
8 10 14 25 14 14 0 25 5 25 10 0 6 -16 10 -35 10 l-35 0 0 -55z"/>
<path d="M1270 775 c0 -30 5 -55 10 -55 6 0 10 9 10 20 0 11 4 20 10 20 5 0
14 -9 20 -20 6 -11 18 -20 26 -20 13 0 13 2 0 21 -11 16 -12 26 -4 39 18 29 3
50 -37 50 l-35 0 0 -55z"/>
<path d="M1510 775 l0 -55 40 0 c22 0 40 5 40 10 0 6 -14 10 -31 10 -35 0 -36
23 -1 28 12 2 22 8 22 13 0 6 -10 9 -22 7 -11 -2 -23 3 -25 10 -3 8 6 12 26
12 17 0 31 5 31 10 0 6 -18 10 -40 10 l-40 0 0 -55z"/>
<path d="M1680 775 c0 -42 3 -55 15 -55 8 0 15 9 15 20 0 15 7 20 24 20 16 0
27 7 31 20 9 30 -12 50 -51 50 l-34 0 0 -55z m58 18 c-5 -25 -28 -28 -28 -4 0
12 6 21 16 21 9 0 14 -7 12 -17z"/>
<path d="M1800 775 l0 -55 34 0 c19 0 38 5 41 10 4 6 -7 10 -24 10 -30 0 -31
1 -31 45 0 25 -4 45 -10 45 -5 0 -10 -25 -10 -55z"/>
<path d="M1926 797 c-24 -58 -28 -77 -16 -77 6 0 13 7 16 15 4 8 15 15 25 15
11 0 22 -7 25 -15 4 -8 12 -15 19 -15 10 0 8 14 -8 55 -12 30 -28 55 -34 55
-7 0 -19 -15 -27 -33z"/>
<path d="M2010 820 c0 -5 9 -10 20 -10 17 0 20 -7 20 -45 0 -25 5 -45 10 -45
6 0 10 20 10 45 0 38 3 45 20 45 11 0 20 5 20 10 0 6 -22 10 -50 10 -27 0 -50
-4 -50 -10z"/>
<path d="M2140 785 c0 -25 0 -48 -1 -52 0 -4 4 -9 10 -11 6 -2 11 8 11 22 0
19 5 26 20 26 11 0 20 5 20 11 0 6 -9 9 -20 6 -13 -3 -20 0 -20 9 0 8 10 14
25 14 14 0 25 5 25 10 0 6 -16 10 -35 10 -35 0 -35 0 -35 -45z"/>
<path d="M2243 804 c-15 -24 -15 -29 -2 -53 11 -20 22 -26 49 -26 27 0 38 6
49 26 13 24 13 29 -2 53 -12 18 -26 26 -47 26 -21 0 -35 -8 -47 -26z m72 -29
c0 -25 -4 -30 -25 -30 -16 0 -26 6 -28 18 -6 30 6 49 30 45 18 -2 23 -9 23
-33z"/>
<path d="M2380 775 c0 -30 5 -55 10 -55 6 0 10 9 10 20 0 11 4 20 10 20 5 0
14 -9 20 -20 6 -11 18 -20 26 -20 13 0 13 2 0 21 -11 16 -12 26 -4 39 18 29 3
50 -37 50 l-35 0 0 -55z"/>
<path d="M2500 775 c0 -61 19 -77 21 -17 1 37 1 37 12 10 6 -16 14 -28 19 -28
4 0 14 12 22 28 l15 27 1 -37 c0 -21 5 -38 10 -38 6 0 10 25 10 55 0 64 -18
74 -41 23 l-15 -31 -13 31 c-22 52 -41 41 -41 -23z"/>
<path d="M870 550 c0 -56 3 -70 15 -70 12 0 15 14 15 70 0 56 -3 70 -15 70
-12 0 -15 -14 -15 -70z"/>
<path d="M950 618 c-1 -2 -2 -33 -3 -71 -1 -48 2 -67 11 -67 8 0 12 16 12 48
l0 47 33 -47 c47 -69 62 -64 62 22 0 49 -4 70 -12 70 -9 0 -13 -17 -13 -52 l0
-52 -36 52 c-30 43 -52 63 -54 50z"/>
<path d="M1180 550 c0 -57 3 -70 16 -70 12 0 14 8 8 45 -8 54 0 58 20 10 8
-19 20 -35 25 -35 6 0 17 16 25 35 20 48 29 44 20 -10 -5 -38 -4 -45 10 -45
13 0 16 12 16 70 0 57 -3 70 -16 70 -9 0 -23 -17 -32 -40 -9 -22 -20 -40 -23
-40 -3 0 -13 18 -23 40 -28 64 -46 53 -46 -30z"/>
<path d="M1387 552 c-31 -78 -32 -83 -12 -76 8 4 15 12 15 20 0 9 12 14 35 14
24 0 35 -5 35 -15 0 -8 7 -15 15 -15 8 0 15 3 15 8 0 20 -55 132 -65 132 -6 0
-24 -30 -38 -68z m50 -18 c-3 -3 -12 -4 -20 -2 -11 2 -12 9 -5 28 l10 25 11
-23 c5 -12 8 -25 4 -28z"/>
<path d="M1530 551 l0 -71 43 0 c52 0 77 22 77 66 0 46 -20 65 -73 71 l-47 6
0 -72z m64 39 c46 -17 31 -90 -18 -90 -19 0 -21 6 -19 47 1 27 2 49 2 51 1 4
9 2 35 -8z"/>
<path d="M1703 551 c-17 -39 -29 -72 -26 -75 9 -9 33 6 33 20 0 22 53 17 73
-7 10 -11 21 -18 24 -16 9 9 -49 147 -62 147 -6 0 -25 -31 -42 -69z m54 -17
c-3 -3 -12 -4 -20 -2 -11 2 -12 9 -5 28 l10 25 11 -23 c5 -12 8 -25 4 -28z"/>
<path d="M1849 618 c-1 -2 -2 -33 -3 -70 l-1 -68 40 0 c23 0 46 5 53 12 15 15
16 45 1 50 -9 3 -9 9 0 25 15 29 -9 53 -55 53 -19 0 -34 -1 -35 -2z m60 -27
c18 -11 5 -31 -20 -31 -12 0 -19 7 -19 20 0 21 16 26 39 11z m6 -71 c0 -8 -10
-16 -22 -18 -18 -3 -23 2 -23 18 0 16 5 21 23 18 12 -2 22 -10 22 -18z"/>
<path d="M2006 552 c-30 -79 -31 -83 -11 -76 8 4 15 12 15 20 0 9 12 14 35 14
23 0 35 -5 35 -14 0 -8 7 -16 15 -20 20 -7 19 -2 -12 76 -14 38 -32 68 -39 68
-7 0 -24 -30 -38 -68z m54 -9 c0 -7 -9 -13 -20 -13 -17 0 -18 3 -8 25 8 19 14
22 20 13 4 -7 8 -19 8 -25z"/>
</g>
</svg>
